<svg width="18" height="16" viewBox="0 0 18 16" fill="none" xmlns="http://www.w3.org/2000/svg">
<path fill-rule="evenodd" clip-rule="evenodd" d="M2.08045 2.05857C1.3175 2.75224 0.82178 3.83284 1.04835 5.42928C1.27522 7.02783 2.30989 8.68522 3.83905 10.3478C5.28365 11.9184 7.12228 13.4437 9.00001 14.874C10.8777 13.4437 12.7164 11.9184 14.161 10.3478C15.6902 8.68521 16.7249 7.02783 16.9517 5.4293C17.1782 3.83285 16.6825 2.75224 15.9195 2.05856C15.1355 1.34572 14.0213 1 12.9733 1C11.1178 1 10.0851 2.08479 9.51428 2.68443C9.45509 2.7466 9.40087 2.80356 9.35121 2.85355C9.15725 3.04882 8.84277 3.04882 8.64881 2.85355C8.59915 2.80356 8.54493 2.7466 8.48574 2.68443C7.91491 2.08479 6.88224 1 5.02668 1C3.97871 1 2.86448 1.34573 2.08045 2.05857ZM1.41467 1.31643C2.41792 0.404274 3.78706 0 5.02668 0C7.08415 0 8.34981 1.11257 9.00001 1.77862C9.65021 1.11257 10.9159 0 12.9733 0C14.213 0 15.5821 0.404275 16.5853 1.31644C17.6096 2.24776 18.2051 3.66715 17.935 5.5707C17.6652 7.47217 16.4649 9.31479 14.8899 11.0272C13.3067 12.7486 11.2911 14.3952 9.29801 15.9C9.12142 16.0333 8.8786 16.0333 8.70201 15.9C6.70896 14.3952 4.69338 12.7485 3.11018 11.0272C1.53518 9.31478 0.334857 7.47217 0.0650003 5.57072C-0.205156 3.66716 0.390331 2.24776 1.41467 1.31643Z" fill="black"/>
</svg>
