<svg width="20" height="20" viewBox="0 0 20 20" fill="none" xmlns="http://www.w3.org/2000/svg">
<circle cx="10" cy="10" r="7.5" stroke="#A0A0A4"/>
<path d="M10 7.50563C9.70696 7.50563 9.46703 7.43305 9.28022 7.28789C9.09341 7.13964 9 6.95897 9 6.74586C9 6.52658 9.09341 6.34745 9.28022 6.20847C9.46703 6.06949 9.70696 6 10 6C10.2967 6 10.5366 6.06949 10.7198 6.20847C10.9066 6.34745 11 6.52658 11 6.74586C11 6.96823 10.9066 7.15045 10.7198 7.29252C10.5366 7.43459 10.2967 7.50563 10 7.50563ZM10.8571 13H9.12088V8.25612H10.8571V13Z" fill="#A0A0A4"/>
</svg>
