<svg width="30" height="10" viewBox="0 0 30 10" fill="none" xmlns="http://www.w3.org/2000/svg">
<path d="M16.5333 2.34324L14.7413 6.25676H14.56V1.5H12V9.5H14.1227C14.6987 9.5 15.2107 9.16487 15.456 8.64595L17.2587 4.74324H17.44V9.5H20V1.5H17.8453C17.2907 1.5 16.768 1.83514 16.5333 2.34324Z" fill="#319B42"/>
<path d="M7.13684 2.54865L6.09474 6.25676H5.91579L4.86316 2.54865C4.68421 1.92162 4.12632 1.5 3.49474 1.5H1V9.5H3.52632V4.74324H3.70526L5.15789 9.5H6.8421L8.29474 4.74324H8.47368V9.5H11V1.5H8.50526C7.87368 1.5 7.30526 1.92162 7.13684 2.54865Z" fill="#319B42"/>
<path d="M21.4888 5.06616V9.5H24.2161V6.90458H27.1479C28.4206 6.90458 29.5001 6.13677 29.8979 5.06616H21.4888Z" fill="#319B42"/>
<path d="M27.0682 1.5H21C21.375 3.40331 23.125 4.74428 25.2273 4.74428H29.9432C29.9773 4.57125 30 4.37659 30 4.18194C30 2.6355 28.6932 1.5 27.0682 1.5Z" fill="url(#paint0_linear_7_2283)"/>
<defs>
<linearGradient id="paint0_linear_7_2283" x1="21" y1="3.12214" x2="30" y2="3.12214" gradientUnits="userSpaceOnUse">
<stop stop-color="#00A3E1"/>
<stop offset="0.3042" stop-color="#009ADD"/>
<stop offset="0.7987" stop-color="#0082D4"/>
<stop offset="1" stop-color="#0076CF"/>
</linearGradient>
</defs>
</svg>
